<svg width="722" height="722" viewBox="0 0 722 722" fill="none" xmlns="http://www.w3.org/2000/svg">
<path d="M361 703.16C538.446 703.16 682.294 620.109 682.294 517.661C682.294 415.213 538.446 332.162 361 332.162C183.554 332.162 39.7057 415.213 39.7057 517.661C39.7057 620.109 183.554 703.16 361 703.16Z" fill="#A5C3A7"/>
<path d="M138.015 554.461C157.658 554.461 173.582 545.268 173.582 533.928C173.582 522.587 157.658 513.394 138.015 513.394C118.371 513.394 102.447 522.587 102.447 533.928C102.447 545.268 118.371 554.461 138.015 554.461Z" fill="#9FB9A0"/>
<path d="M411.911 423.859L178.164 558.814C174.286 561.052 174.286 566.647 178.164 568.885L315.539 648.2C322.568 652.258 331.228 652.258 338.257 648.2L572.004 513.245C575.882 511.007 575.882 505.412 572.004 503.173L434.63 423.859C427.6 419.8 418.94 419.8 411.911 423.859Z" fill="#9FB9A0"/>
<path d="M341.728 425.173L248.144 479.203C239.909 483.958 239.909 495.845 248.144 500.599L295.269 527.807C301.613 531.469 309.428 531.469 315.771 527.807L409.355 473.775C417.59 469.02 417.59 457.133 409.355 452.379L362.23 425.171C355.888 421.511 348.072 421.511 341.728 425.173Z" fill="#9FB9A0"/>
<path d="M139.89 480.788C139.89 480.788 117.911 459.326 130.421 423.374C137.431 403.223 160.658 388.427 173.888 387.035C173.888 387.035 166.711 395.305 163.552 404.466L146.892 415.541L162.206 410.746L158.945 423.854C158.945 423.854 144.702 432.468 142.592 434.347L157.946 430.334C157.943 430.334 156.766 467.446 139.89 480.788Z" fill="#6D8B89"/>
<path opacity="0.4" d="M139.89 480.788C139.89 480.788 117.911 459.326 130.421 423.374C137.431 403.223 160.658 388.427 173.888 387.035C173.888 387.035 166.711 395.305 163.552 404.466L146.892 415.541L162.206 410.746L158.945 423.854C158.945 423.854 144.702 432.468 142.592 434.347L157.946 430.334C157.943 430.334 156.766 467.446 139.89 480.788Z" fill="black"/>
<path d="M139.89 480.788C139.89 480.788 128.51 435.874 145.347 409.683C145.347 409.683 125.609 432.794 139.89 480.788Z" fill="white"/>
<path d="M165.043 486.869L138.152 486.531V486.528L138.015 486.53L137.878 486.528V486.531L110.986 486.869C110.986 486.869 110.687 519.997 120.89 533.477C123.708 537.061 130.314 539.577 138.015 539.577C145.729 539.577 152.342 537.052 155.152 533.458C165.341 519.967 165.043 486.869 165.043 486.869Z" fill="#37474F"/>
<path d="M138.015 501.38C152.943 501.38 165.045 494.883 165.045 486.869C165.045 478.855 152.943 472.358 138.015 472.358C123.086 472.358 110.984 478.855 110.984 486.869C110.984 494.883 123.086 501.38 138.015 501.38Z" fill="#455A64"/>
<path d="M138.015 483.019C147.314 483.019 155.19 486.003 157.964 490.133C158.654 489.104 159.041 488.01 159.041 486.868C159.041 481.136 149.627 476.49 138.015 476.49C126.402 476.49 116.989 481.136 116.989 486.868C116.989 488.01 117.376 489.104 118.066 490.133C120.84 486.003 128.715 483.019 138.015 483.019Z" fill="#263238"/>
<path d="M138.015 483.019C128.715 483.019 120.84 486.003 118.066 490.133C120.84 494.264 128.715 497.246 138.015 497.246C147.314 497.246 155.19 494.262 157.964 490.133C155.19 486.003 147.314 483.019 138.015 483.019Z" fill="#E0E0E0"/>
<path d="M138.345 491.926C138.345 491.926 127.928 491.522 118.994 477.687C115.309 471.981 113.533 468.984 113.533 468.984L128.047 467.902L111.787 463.837L104.104 452.083L117.607 451.081C117.607 451.081 107.549 447.558 100.368 447.513C100.368 447.513 87.9165 425.515 84.2733 422.38C84.2733 422.38 112.993 422.617 133.463 446.821C153.933 471.026 141.382 492.545 138.345 491.926Z" fill="#6D8B89"/>
<path d="M138.345 491.926C138.345 491.926 144.861 452.685 103.284 429.08C103.284 429.08 146.435 449.807 138.345 491.926Z" fill="white"/>
<path d="M138.345 491.926C138.345 491.926 147.782 492.541 157.145 480.901C161.007 476.1 162.892 473.564 162.892 473.564L149.899 471.222L164.951 469.086L172.99 459.205L160.901 457.029C160.901 457.029 170.307 454.798 176.789 455.432C176.789 455.432 190.095 436.758 193.677 434.273C193.677 434.273 167.742 431.783 146.995 451.692C126.247 471.6 135.547 492.199 138.345 491.926Z" fill="#6D8B89"/>
<path opacity="0.2" d="M138.345 491.926C138.345 491.926 147.782 492.541 157.145 480.901C161.007 476.1 162.892 473.564 162.892 473.564L149.899 471.222L164.951 469.086L172.99 459.205L160.901 457.029C160.901 457.029 170.307 454.798 176.789 455.432C176.789 455.432 190.095 436.758 193.677 434.273C193.677 434.273 167.742 431.783 146.995 451.692C126.247 471.6 135.547 492.199 138.345 491.926Z" fill="black"/>
<path d="M138.345 491.926C138.345 491.926 136.162 455.908 175.897 438.527C175.897 438.527 135.013 453.165 138.345 491.926Z" fill="white"/>
<path d="M186.14 172.409V244.147L124.014 280.016V208.278L186.14 172.409Z" fill="#FAFAFA"/>
<path d="M179.414 176.292V240.263L124.014 272.249V208.278L179.414 176.292ZM182.777 170.467L120.651 206.336V278.074L124.014 280.016L186.14 244.147V172.409L182.777 170.467Z" fill="#6D8B89"/>
<path d="M182.777 178.234V242.205L127.377 274.191V210.22L182.777 178.234ZM186.14 172.409L124.014 208.278V280.016L186.14 244.147V172.409Z" fill="#EBEBEB"/>
<path d="M177.023 227.736L130.023 254.872L143.909 218.744L153.523 230.163L163.354 216.164L177.023 227.736Z" fill="#6D8B89"/>
<path d="M160.719 205.2C160.719 207.933 158.8 211.259 156.431 212.625C154.063 213.992 152.144 212.883 152.144 210.15C152.144 207.416 154.063 204.091 156.431 202.725C158.8 201.357 160.719 202.465 160.719 205.2Z" fill="#6D8B89"/>
<path d="M206.869 83.095V140.244L157.376 168.819V111.67L206.869 83.095Z" fill="#FAFAFA"/>
<path d="M201.51 86.188V137.151L157.376 162.632V111.67L201.51 86.188ZM204.189 81.5485L154.696 110.122V167.272L157.374 168.818L206.867 140.243V83.095L204.189 81.5485Z" fill="#6D8B89"/>
<path d="M204.189 87.7345V138.698L160.054 164.178V113.217L204.189 87.7345ZM206.869 83.095L157.376 111.67V168.819L206.869 140.244V83.095Z" fill="#EBEBEB"/>
<path d="M199.604 127.17L162.163 148.787L173.225 120.007L180.884 129.105L188.716 117.952L199.604 127.17Z" fill="#6D8B89"/>
<path d="M186.617 109.217C186.617 111.395 185.088 114.043 183.202 115.133C181.316 116.222 179.787 115.34 179.787 113.161C179.787 110.982 181.316 108.335 183.202 107.244C185.088 106.156 186.617 107.038 186.617 109.217Z" fill="#6D8B89"/>
<path d="M312.125 413.458L332.214 536.037C332.517 537.886 334.114 539.243 335.987 539.243C338.267 539.243 340.04 537.26 339.788 534.996L325.694 408.536L312.125 413.458Z" fill="#263238"/>
<path d="M381.466 372.23L401.555 494.81C401.858 496.658 403.455 498.015 405.328 498.015C407.608 498.015 409.381 496.034 409.129 493.769L395.035 367.309L381.466 372.23Z" fill="#263238"/>
<path d="M281.287 384.791L261.464 490.426C261.183 491.953 259.861 493.052 258.297 493.052C256.34 493.052 254.831 491.301 255.111 489.363L269.755 391.46L281.287 384.791Z" fill="#263238"/>
<path d="M351.412 345.387L331.701 450.369C331.423 451.897 330.098 452.996 328.535 452.996C326.578 452.996 325.069 451.244 325.349 449.308L339.88 352.039L351.412 345.387Z" fill="#263238"/>
<path d="M345.694 337.396C336.443 333.272 330.104 324.552 329.102 314.473C325.905 282.309 314.578 216.027 276.19 238.091C228.808 265.325 245.772 344.408 252.661 369.768C254.215 375.489 257.192 380.706 261.368 384.914C269.928 393.538 287.651 408.386 317.79 421.029C321.486 422.579 325.606 422.823 329.462 421.725C344.436 417.459 383.557 404.359 403.061 379.418C405.367 376.47 404.866 372.213 401.936 369.884C394.034 363.602 376.184 350.989 345.694 337.396Z" fill="#6D8B89"/>
<path opacity="0.5" d="M345.694 337.396C336.443 333.272 330.104 324.552 329.102 314.473C325.905 282.309 314.578 216.027 276.19 238.091C228.808 265.325 245.772 344.408 252.661 369.768C254.215 375.489 257.192 380.706 261.368 384.914C269.928 393.538 287.651 408.386 317.79 421.029C321.486 422.579 325.606 422.823 329.462 421.725C344.436 417.459 383.557 404.359 403.061 379.418C405.367 376.47 404.866 372.213 401.936 369.884C394.034 363.602 376.184 350.989 345.694 337.396Z" fill="black"/>
<path d="M404.472 374.877C404.551 376.458 404.112 378.074 403.061 379.418C402.02 380.75 400.912 382.039 399.766 383.304L399.764 383.305C399.137 383.997 398.495 384.677 397.841 385.349C397.828 385.362 397.815 385.376 397.802 385.389C397.152 386.053 396.491 386.708 395.816 387.352C395.796 387.37 395.777 387.389 395.757 387.408C395.083 388.052 394.395 388.686 393.698 389.31C393.681 389.326 393.663 389.341 393.646 389.356C392.943 389.985 392.228 390.603 391.503 391.214C391.494 391.221 391.484 391.23 391.476 391.237C380.415 400.527 366.991 407.594 354.989 412.695C354.973 412.702 354.958 412.708 354.942 412.715C354.194 413.033 353.455 413.342 352.72 413.644C352.644 413.676 352.566 413.707 352.489 413.739C351.8 414.021 351.119 414.297 350.443 414.565C350.324 414.613 350.205 414.66 350.086 414.707C349.444 414.961 348.808 415.209 348.179 415.452C348.033 415.508 347.887 415.564 347.741 415.619C347.142 415.849 346.548 416.073 345.962 416.291C345.789 416.354 345.619 416.419 345.447 416.481C344.894 416.686 344.346 416.886 343.806 417.081C343.607 417.153 343.409 417.224 343.211 417.294C342.7 417.478 342.193 417.657 341.695 417.831C341.483 417.905 341.276 417.977 341.067 418.05C340.593 418.214 340.124 418.376 339.663 418.532C339.437 418.608 339.216 418.682 338.992 418.757C338.562 418.901 338.134 419.044 337.717 419.182C337.471 419.262 337.235 419.339 336.993 419.417C336.609 419.541 336.227 419.667 335.856 419.785C335.593 419.869 335.34 419.948 335.085 420.029C334.752 420.135 334.417 420.24 334.095 420.34C333.811 420.428 333.539 420.51 333.264 420.595C332.985 420.681 332.7 420.769 332.432 420.849C332.081 420.955 331.749 421.053 331.415 421.153C331.245 421.203 331.064 421.258 330.898 421.307C330.399 421.455 329.916 421.593 329.46 421.723C325.605 422.822 321.485 422.578 317.788 421.027C287.649 408.385 269.927 393.536 261.367 384.913C257.191 380.705 254.213 375.488 252.66 369.767C245.77 344.407 228.806 265.323 276.188 238.09C277.029 237.607 277.85 237.181 278.665 236.781C278.842 236.695 279.02 236.607 279.196 236.523C279.997 236.145 280.789 235.798 281.566 235.499C281.642 235.47 281.717 235.446 281.792 235.418C282.537 235.137 283.269 234.895 283.993 234.685C284.104 234.653 284.217 234.617 284.326 234.586C285.105 234.37 285.87 234.194 286.621 234.057C286.686 234.045 286.75 234.036 286.813 234.025C288.383 233.753 289.896 233.649 291.354 233.706C291.383 233.707 291.411 233.709 291.44 233.71C292.931 233.773 294.367 233.999 295.746 234.377C288.176 231.033 278.936 231.184 269.774 236.451C222.392 263.684 239.357 342.768 246.245 368.128L247.411 372.484C249.763 381.282 254.963 389.054 262.199 394.585L274.493 403.982V403.976C284.448 411.632 298.57 420.562 317.738 428.607C321.446 430.163 325.577 430.426 329.446 429.324C344.411 425.062 383.547 411.962 403.057 387.015C403.926 385.903 404.373 384.608 404.459 383.301H404.489V374.855L404.472 374.877Z" fill="#6D8B89"/>
<path opacity="0.6" d="M404.472 374.877C404.551 376.458 404.112 378.074 403.061 379.418C402.02 380.75 400.912 382.039 399.766 383.304L399.764 383.305C399.137 383.997 398.495 384.677 397.841 385.349C397.828 385.362 397.815 385.376 397.802 385.389C397.152 386.053 396.491 386.708 395.816 387.352C395.796 387.37 395.777 387.389 395.757 387.408C395.083 388.052 394.395 388.686 393.698 389.31C393.681 389.326 393.663 389.341 393.646 389.356C392.943 389.985 392.228 390.603 391.503 391.214C391.494 391.221 391.484 391.23 391.476 391.237C380.415 400.527 366.991 407.594 354.989 412.695C354.973 412.702 354.958 412.708 354.942 412.715C354.194 413.033 353.455 413.342 352.72 413.644C352.644 413.676 352.566 413.707 352.489 413.739C351.8 414.021 351.119 414.297 350.443 414.565C350.324 414.613 350.205 414.66 350.086 414.707C349.444 414.961 348.808 415.209 348.179 415.452C348.033 415.508 347.887 415.564 347.741 415.619C347.142 415.849 346.548 416.073 345.962 416.291C345.789 416.354 345.619 416.419 345.447 416.481C344.894 416.686 344.346 416.886 343.806 417.081C343.607 417.153 343.409 417.224 343.211 417.294C342.7 417.478 342.193 417.657 341.695 417.831C341.483 417.905 341.276 417.977 341.067 418.05C340.593 418.214 340.124 418.376 339.663 418.532C339.437 418.608 339.216 418.682 338.992 418.757C338.562 418.901 338.134 419.044 337.717 419.182C337.471 419.262 337.235 419.339 336.993 419.417C336.609 419.541 336.227 419.667 335.856 419.785C335.593 419.869 335.34 419.948 335.085 420.029C334.752 420.135 334.417 420.24 334.095 420.34C333.811 420.428 333.539 420.51 333.264 420.595C332.985 420.681 332.7 420.769 332.432 420.849C332.081 420.955 331.749 421.053 331.415 421.153C331.245 421.203 331.064 421.258 330.898 421.307C330.399 421.455 329.916 421.593 329.46 421.723C325.605 422.822 321.485 422.578 317.788 421.027C287.649 408.385 269.927 393.536 261.367 384.913C257.191 380.705 254.213 375.488 252.66 369.767C245.77 344.407 228.806 265.323 276.188 238.09C277.029 237.607 277.85 237.181 278.665 236.781C278.842 236.695 279.02 236.607 279.196 236.523C279.997 236.145 280.789 235.798 281.566 235.499C281.642 235.47 281.717 235.446 281.792 235.418C282.537 235.137 283.269 234.895 283.993 234.685C284.104 234.653 284.217 234.617 284.326 234.586C285.105 234.37 285.87 234.194 286.621 234.057C286.686 234.045 286.75 234.036 286.813 234.025C288.383 233.753 289.896 233.649 291.354 233.706C291.383 233.707 291.411 233.709 291.44 233.71C292.931 233.773 294.367 233.999 295.746 234.377C288.176 231.033 278.936 231.184 269.774 236.451C222.392 263.684 239.357 342.768 246.245 368.128L247.411 372.484C249.763 381.282 254.963 389.054 262.199 394.585L274.493 403.982V403.976C284.448 411.632 298.57 420.562 317.738 428.607C321.446 430.163 325.577 430.426 329.446 429.324C344.411 425.062 383.547 411.962 403.057 387.015C403.926 385.903 404.373 384.608 404.459 383.301H404.489V374.855L404.472 374.877Z" fill="black"/>
<path d="M430.62 465.368C427.378 444.743 423.239 411.759 420.865 392.257C420.709 390.974 420.494 389.706 420.22 388.456C417.842 377.57 410.711 368.314 401.136 362.614L352.535 333.681L319.538 316.327C319.538 316.327 310.756 341.771 320.959 357.328C329.452 370.274 366.936 386.332 378.075 391.74C389.214 397.146 389.456 398.62 389.223 405.85C388.991 413.08 388.983 422.292 402.677 451.15C406.612 459.441 409.354 465.645 411.267 470.397C416.038 470.812 423.121 470.222 430.62 465.368Z" fill="#6D8B89"/>
<path opacity="0.7" d="M430.619 465.368C427.378 444.743 423.239 411.759 420.865 392.257C420.631 390.335 420.263 388.442 419.768 386.592C417.063 376.493 410.201 368.011 401.218 362.662L352.537 333.679L319.54 316.325C319.54 316.325 310.757 341.77 320.961 357.326C329.453 370.273 366.938 386.331 378.077 391.738C389.216 397.145 389.457 398.619 389.224 405.849C388.992 413.079 388.985 422.29 402.678 451.149C406.613 459.44 409.355 465.644 411.268 470.396C416.038 470.812 423.121 470.223 430.619 465.368Z" fill="black"/>
<path d="M415.586 487.214C415.564 488.076 415.762 488.917 416.174 489.675C417.081 491.341 419.153 494.466 423.485 498.375C430.032 504.279 451.737 527.389 459.368 513.043C459.368 513.043 436.946 491.566 433.974 482.733C433.129 480.224 431.95 473.83 430.62 465.369C423.121 470.224 416.038 470.813 411.269 470.399C415.474 480.84 415.66 484.245 415.586 487.214Z" fill="#FFA8A7"/>
<path d="M438.92 485.809L438.297 483.946C437.814 482.498 436.263 481.702 434.806 482.151L425.72 484.953C424.549 485.314 423.75 486.397 423.75 487.623V488.531C423.75 489.428 423.024 490.154 422.127 490.154C420.204 490.154 418.34 489.484 416.855 488.261L415.586 487.214V484.039C413.917 485.125 412.949 487.016 413.053 489.005C413.166 491.159 413.271 493.79 413.192 494.836C413.046 496.733 411.261 504.681 413.387 507.03C415.514 509.38 420.27 509.658 426.162 509.023C432.054 508.388 438.501 514.185 443.961 516.331C449.42 518.477 472.031 523.108 471.974 508.652C471.96 504.971 468.318 503.469 464.743 502.162C461.169 500.856 448.262 496.311 444.954 493.582C443.439 492.332 442.185 491.012 441.271 489.948C440.222 488.73 439.429 487.333 438.92 485.809Z" fill="#455A64"/>
<path d="M443.961 516.329C438.501 514.184 432.054 508.386 426.162 509.021C420.27 509.657 415.512 509.378 413.387 507.029C412.747 506.321 412.464 505.101 412.383 503.696C412.274 505.92 412.447 508.057 413.387 509.096C415.514 511.446 420.27 511.725 426.162 511.089C432.054 510.454 438.501 516.252 443.961 518.397C449.42 520.543 472.032 525.174 471.974 510.718C471.973 510.494 471.919 510.302 471.892 510.093C470.462 522.78 449.23 518.4 443.961 516.329Z" fill="#263238"/>
<path d="M386.466 490.411C383.225 469.787 379.086 436.804 376.712 417.3C375.463 407.048 370.402 397.652 362.534 390.961L304.205 341.37L273.036 340.833C273.036 340.833 266.606 366.815 276.809 382.371C285.301 395.318 322.786 411.377 333.925 416.783C345.064 422.189 345.307 423.664 345.073 430.894C344.84 438.124 344.833 447.335 358.526 476.194C362.461 484.485 365.203 490.688 367.117 495.441C371.885 495.855 378.968 495.266 386.466 490.411Z" fill="#6D8B89"/>
<path opacity="0.7" d="M386.466 490.411C383.225 469.787 379.086 436.804 376.712 417.3C375.463 407.048 370.402 397.652 362.534 390.961L304.205 341.37L273.036 340.833C273.036 340.833 266.606 366.815 276.809 382.371C285.301 395.318 322.786 411.377 333.925 416.783C345.064 422.189 345.307 423.664 345.073 430.894C344.84 438.124 344.833 447.335 358.526 476.194C362.461 484.485 365.203 490.688 367.117 495.441C371.885 495.855 378.968 495.266 386.466 490.411Z" fill="black"/>
<path d="M371.417 510.402C371.395 511.264 370.819 513.826 372.021 514.718C373.544 515.849 375 519.509 379.332 523.418C385.879 529.323 392.793 516.61 389.821 507.777C388.976 505.267 387.796 498.873 386.466 490.413C378.968 495.267 371.885 495.856 367.115 495.442C371.32 505.884 371.491 507.433 371.417 510.402Z" fill="#FFA8A7"/>
<path d="M332.867 233.236C342.081 231.798 351.044 237.177 353.968 246.032C355.724 251.351 357.299 257.844 357.91 265.111C359.592 285.112 360.06 295.113 360.06 295.113L380.152 304.226C380.152 304.226 369.302 304.748 370.037 320.068L345.012 313.76L332.867 233.236Z" fill="#FFA8A7"/>
<path d="M360.802 283.024C357.842 261.355 356.667 250.03 354.125 244.65C350.143 236.218 342.081 231.798 332.867 233.235L340.432 292.729L341.406 292.634C348.108 291.978 354.423 289.187 359.419 284.672L360.802 283.024Z" fill="#6D8B89"/>
<path opacity="0.2" d="M360.802 283.024C357.842 261.355 356.667 250.03 354.125 244.65C350.143 236.218 342.081 231.798 332.867 233.235L340.432 292.729L341.406 292.634C348.108 291.978 354.423 289.187 359.419 284.672L360.802 283.024Z" fill="black"/>
<path d="M360.06 295.113C360.06 295.113 356.228 296.235 354.125 298.758C354.125 298.758 356.548 294.151 359.937 292.729L360.06 295.113Z" fill="#F28F8F"/>
<path d="M284.611 250.774L307.084 239.89L325.599 233.501C325.599 233.501 340.432 228.769 344.228 248.537C347.348 264.786 347.757 326.524 347.757 326.524L347.426 333.281C347.426 333.281 338.861 357.273 308.261 359.259C277.661 361.244 271.706 348.342 271.706 348.342C271.706 348.342 268.607 266.656 284.611 250.774Z" fill="#6D8B89"/>
<path d="M355.41 184.774C355.41 184.774 362.357 202.576 352.763 210.414C343.17 218.252 346.495 186.758 346.495 186.758L355.41 184.774Z" fill="#263238"/>
<path d="M338.491 643.173C336.313 644.431 332.783 644.431 330.605 643.173C328.428 641.916 328.428 639.878 330.605 638.621C332.783 637.363 336.313 637.363 338.491 638.621C340.669 639.878 340.669 641.917 338.491 643.173Z" fill="#455A64"/>
<path d="M340.135 506.541H328.982V640.772H340.135V506.541Z" fill="#37474F"/>
<path d="M207.744 569.658C210.824 569.658 213.321 568.216 213.321 566.438C213.321 564.659 210.824 563.218 207.744 563.218C204.664 563.218 202.167 564.659 202.167 566.438C202.167 568.216 204.664 569.658 207.744 569.658Z" fill="#455A64"/>
<path d="M213.332 432.082H202.179V566.314H213.332V432.082Z" fill="#263238"/>
<path d="M546.358 522.741C544.18 523.999 540.649 523.999 538.472 522.741C536.294 521.483 536.294 519.446 538.472 518.188C540.649 516.93 544.18 516.93 546.358 518.188C548.535 519.446 548.535 521.483 546.358 522.741Z" fill="#455A64"/>
<path d="M548.002 386.108H536.849V520.34H548.002V386.108Z" fill="#37474F"/>
<path d="M410.041 421.163C408.087 422.29 404.921 422.29 402.967 421.163C401.013 420.035 401.013 418.207 402.967 417.079C404.921 415.951 408.087 415.951 410.041 417.079C411.993 418.205 411.993 420.035 410.041 421.163Z" fill="#455A64"/>
<path d="M411.515 306.989H401.511V419.008H411.515V306.989Z" fill="#455A64"/>
<path d="M202.167 409.846V436.551L334.568 512.992V486.286L202.167 409.846Z" fill="#263238"/>
<path d="M548.002 363.061L334.568 486.286V512.993L548.002 389.766V363.061Z" fill="#37474F"/>
<path d="M415.602 286.62L202.167 409.846L334.568 486.286L548.002 363.061L415.602 286.62Z" fill="#455A64"/>
<path d="M308.524 369.774L357.071 397.802L437.783 351.126L389.243 322.526L308.524 369.774Z" fill="#EBEBEB"/>
<path d="M351.846 361.798L370.06 351.283L358.643 344.693L340.432 355.208L351.846 361.798Z" fill="#E0E0E0"/>
<path d="M359.134 390.801L334.599 376.361L382.547 347.341L359.134 390.801Z" fill="#E0E0E0"/>
<path d="M372.867 300.758L392.289 309.867C400.072 311.692 409.439 315.166 409.439 315.166C409.439 315.166 422.951 320.689 423.567 324.312C424.184 327.935 413.427 336.664 403.976 332.417C402.07 331.561 398.631 329.831 396.095 329.563C393.558 329.293 386.026 328.107 380.573 322.907L357.907 317.011C357.907 317.011 356.776 303.012 372.867 300.758Z" fill="#FFA8A7"/>
<path d="M385.441 327.852C387.691 330.259 394.104 336.338 395.503 338.094C396.902 339.85 400.208 335.334 394.413 328.605C394.413 328.605 386.697 325.938 380.42 320.988C380.42 320.988 383.191 325.444 385.441 327.852Z" fill="#FFA8A7"/>
<path d="M330.137 211.992H307.084V239.89H330.137V211.992Z" fill="#FFA8A7"/>
<path d="M330.136 239.89C321.989 236.745 313.475 230.434 308.958 219.749V211.992H330.136V239.89Z" fill="#F28F8F"/>
<path d="M337.893 175.162C337.893 175.162 358.861 177.684 354.053 213.504C351.829 230.07 347.403 238.445 334.631 237.027C320.158 235.421 300.166 224.181 303.265 195.798C306.363 167.414 337.893 175.162 337.893 175.162Z" fill="#FFA8A7"/>
<path d="M339.069 207.103L338.309 219.471L345.689 217.692L339.069 207.103Z" fill="#F28F8F"/>
<path d="M328.09 205.985C328.005 207.377 329.063 208.574 330.455 208.659C331.847 208.745 333.044 207.686 333.129 206.294C333.215 204.902 332.156 203.705 330.764 203.62C329.374 203.535 328.175 204.595 328.09 205.985Z" fill="#263238"/>
<path d="M344.774 205.246C344.689 206.638 345.747 207.835 347.139 207.92C348.531 208.005 349.728 206.947 349.813 205.555C349.899 204.163 348.84 202.966 347.448 202.88C346.056 202.795 344.859 203.854 344.774 205.246Z" fill="#263238"/>
<path d="M350.686 200.341L345.938 197.112C345.938 197.112 347.951 195.262 349.76 196.559C351.571 197.855 350.686 200.341 350.686 200.341Z" fill="#263238"/>
<path d="M329.841 199.776L324.711 202.353C324.711 202.353 324.074 199.696 326.087 198.745C328.1 197.795 329.841 199.776 329.841 199.776Z" fill="#263238"/>
<path d="M338.671 224.497C338.671 224.497 333.863 224.64 330.692 221.827C330.692 221.827 329.876 226.065 333.405 227.102C336.934 228.14 338.671 224.497 338.671 224.497Z" fill="#F28F8F"/>
<path d="M306.833 206.814C306.833 206.814 310.06 213.518 312.046 213.286C314.031 213.054 312.046 187.581 316.181 187.417C320.317 187.251 339.801 196.934 357.036 184.439C363.653 179.642 364.975 167.403 361.006 168.561C357.036 169.719 351.678 173.192 344.433 172.697C337.187 172.2 311.881 160.457 305.595 176.997C305.595 176.997 291.58 175.855 296.845 203.669C298.151 210.574 302.287 227.71 307.084 229.397L306.833 206.814Z" fill="#263238"/>
<path d="M307.969 212.931C308.027 210.836 307.69 208.727 306.833 206.814C305.871 204.67 304.171 202.504 301.223 202.423C294.748 202.245 293.874 208.479 293.961 210.698C294.19 216.526 298.908 222.822 307.69 223.063L307.969 212.931Z" fill="#FFA8A7"/>
<path d="M309.973 337.765L326.488 350.849C326.488 350.849 331.713 351.353 334.869 352.3C338.026 353.247 346.319 356.297 348.514 356.771C350.707 357.246 347.871 361.023 342.134 359.65C342.134 359.65 354.174 367.901 354.012 371.573C353.851 375.245 341.493 381.506 333.152 375.358C331.47 374.117 328.474 371.702 326.051 370.903C323.628 370.104 316.516 367.354 312.284 361.12L297.842 353.591C297.842 353.591 293.77 336.57 309.973 337.765Z" fill="#FFA8A7"/>
<path d="M291.944 247.223C291.944 247.223 301.585 254.696 295.662 277.896C289.737 301.097 286.573 321.102 286.573 321.102L309.973 337.763C309.973 337.763 300.081 341.279 297.841 353.589C297.841 353.589 260.957 339.089 260.213 329.784C259.469 320.478 267.905 280.176 269.189 272.769C270.471 265.361 277.027 250.73 291.944 247.223Z" fill="#FFA8A7"/>
<path d="M286.573 321.104C286.573 321.104 281.828 320.091 277.751 321.187C277.751 321.187 281.366 318.954 286.773 318.949L286.573 321.104Z" fill="#F28F8F"/>
<path d="M449.036 297.646L440.596 352.889C440.59 352.928 440.567 352.961 440.534 352.98L356.701 401.604C356.609 401.657 356.493 401.581 356.511 401.474L364.697 347.904C365.05 345.593 366.403 343.554 368.398 342.331L445.305 295.168C447.096 294.068 449.354 295.567 449.036 297.646Z" fill="#FAFAFA"/>
<path d="M356.701 401.602L311.918 375.664C309.817 374.447 308.522 372.201 308.522 369.772L357.071 397.8L356.701 401.602Z" fill="#E0E0E0"/>
<path d="M400.518 350.883C400.518 354.828 403.288 356.428 406.706 354.456C410.122 352.483 412.893 347.685 412.893 343.738C412.893 339.793 410.123 338.193 406.706 340.166C403.288 342.14 400.518 346.938 400.518 350.883Z" fill="#E0E0E0"/>
<path d="M307.816 185.132C307.816 185.132 304.013 179.508 306.327 177.688C308.643 175.869 310.463 181.658 307.816 185.132Z" fill="#263238"/>
<path d="M308.459 186.306C308.459 186.306 301.721 185.467 301.875 182.527C302.03 179.586 307.585 182.028 308.459 186.306Z" fill="#263238"/>
<path d="M307.084 239.89C307.084 239.89 312.03 252.921 323.442 251.266C334.855 249.611 330.136 239.89 330.136 239.89H307.084Z" fill="#FFA8A7"/>
<path d="M291.944 247.223C291.944 247.223 299.457 250.818 298.3 265.928C297.142 281.038 291.188 311.474 291.188 311.474C291.188 311.474 264.304 322.351 261.747 307.007C261.085 303.038 267.866 266.318 273.655 258.544C279.444 250.771 285.986 248.289 291.944 247.223Z" fill="#6D8B89"/>
<path opacity="0.2" d="M291.944 247.223C291.944 247.223 299.457 250.818 298.3 265.928C297.142 281.038 291.188 311.474 291.188 311.474C291.188 311.474 264.304 322.351 261.747 307.007C261.085 303.038 267.866 266.318 273.655 258.544C279.444 250.771 285.986 248.289 291.944 247.223Z" fill="black"/>
<path d="M372.022 511.141C372.022 511.141 373.696 513.778 376.413 514.207C378.038 514.464 374.743 510.233 378.676 508.538C382.609 506.842 391.603 504.502 392.403 507.886L393.399 512.103C394.342 516.09 396.245 519.781 398.945 522.861C401.644 525.938 405.139 529.607 407.848 531.357C412.983 534.674 421.429 542.685 410.587 549.507C399.747 556.328 386.42 550.573 383.812 542.81C381.203 535.048 378.444 532.804 377.053 531.516C375.662 530.228 372.415 528.204 371.193 522.968C370.4 519.57 369.947 515.213 369.728 512.577C369.608 511.138 370.294 509.759 371.512 508.984L372.022 511.141Z" fill="#455A64"/>
<path d="M410.59 549.508C399.75 556.331 386.423 550.574 383.815 542.813C381.206 535.051 378.446 532.807 377.056 531.519C375.81 530.365 373.085 528.599 371.65 524.484C371.668 524.698 371.693 524.917 371.706 525.126C372.12 531.845 376.237 533.419 377.628 534.707C379.018 535.995 381.295 538.124 383.903 545.885C386.513 553.647 400.259 558.486 411.1 551.664C416.362 548.353 417.073 544.763 415.833 541.565C416.032 544.17 414.697 546.925 410.59 549.508Z" fill="#263238"/>
<path d="M358.486 446.433L323.941 466.377L280.341 441.205L314.957 421.22C315.874 420.691 317.003 420.691 317.92 421.22L358.486 444.642C359.175 445.039 359.175 446.034 358.486 446.433Z" fill="#6D8B89"/>
<path opacity="0.7" d="M358.486 446.433L323.941 466.377L280.341 441.205L314.957 421.22C315.874 420.691 317.003 420.691 317.92 421.22L358.486 444.642C359.175 445.039 359.175 446.034 358.486 446.433Z" fill="#47667B"/>
<path d="M356.093 445.701L323.94 464.265L283.359 440.836L315.578 422.234C316.431 421.742 317.482 421.742 318.336 422.234L356.092 444.033C356.734 444.402 356.734 445.33 356.093 445.701Z" fill="white"/>
<path d="M323.94 464.263V460.643L356.574 441.802V444.886L323.94 464.263Z" fill="white"/>
<path d="M323.94 464.263V460.643L283.36 437.214V440.834L323.94 464.263Z" fill="#E0E0E0"/>
<path d="M358.486 440.699L323.941 460.643L280.341 435.471L314.957 415.486C315.874 414.958 317.003 414.958 317.92 415.486L358.486 438.908C359.175 439.305 359.175 440.3 358.486 440.699Z" fill="#6D8B89"/>
<path opacity="0.5" d="M358.486 440.699L323.941 460.643L280.341 435.471L314.957 415.486C315.874 414.958 317.003 414.958 317.92 415.486L358.486 438.908C359.175 439.305 359.175 440.3 358.486 440.699Z" fill="#47667B"/>
<path d="M319.434 463.775C319.225 463.857 318.993 463.849 318.786 463.739C318.528 463.6 318.373 463.343 318.373 463.049V459.774C318.373 458.271 319.177 456.86 320.47 456.094L320.593 456.021C320.767 455.918 320.923 455.985 320.981 456.018C321.04 456.051 321.176 456.151 321.176 456.354C321.176 456.73 321.481 457.033 321.855 457.033C322.23 457.033 322.533 456.728 322.533 456.354C322.533 455.72 322.204 455.153 321.652 454.84C321.101 454.525 320.445 454.531 319.899 454.854L319.777 454.926C318.071 455.936 317.013 457.793 317.013 459.774V463.049C317.013 463.84 317.446 464.564 318.144 464.936C318.46 465.105 318.806 465.189 319.153 465.189C319.569 465.189 319.983 465.067 320.343 464.828C320.48 464.737 320.564 464.601 320.607 464.454L319.434 463.775Z" fill="white"/>
<path d="M312.98 460.05C312.77 460.132 312.538 460.123 312.331 460.013C312.073 459.875 311.918 459.618 311.918 459.325V456.05C311.918 454.546 312.723 453.137 314.015 452.37L314.138 452.298C314.313 452.196 314.469 452.262 314.526 452.295C314.586 452.328 314.721 452.428 314.721 452.632C314.721 453.007 315.026 453.31 315.4 453.31C315.775 453.31 316.079 453.006 316.079 452.632C316.079 451.998 315.749 451.43 315.198 451.117C314.646 450.802 313.992 450.808 313.445 451.131L313.322 451.205C311.617 452.214 310.558 454.071 310.558 456.053V459.328C310.558 460.119 310.991 460.841 311.689 461.215C312.005 461.384 312.352 461.468 312.698 461.468C313.114 461.468 313.529 461.346 313.888 461.107C314.025 461.016 314.109 460.88 314.152 460.733L312.98 460.05Z" fill="white"/>
<path d="M306.525 456.324C306.316 456.406 306.083 456.398 305.877 456.288C305.618 456.149 305.464 455.892 305.464 455.599V452.324C305.464 450.821 306.268 449.412 307.56 448.645L307.683 448.571C307.858 448.469 308.014 448.535 308.072 448.568C308.131 448.602 308.267 448.701 308.267 448.905C308.267 449.28 308.57 449.583 308.945 449.583C309.321 449.583 309.624 449.279 309.624 448.905C309.624 448.269 309.295 447.703 308.743 447.39C308.192 447.075 307.537 447.081 306.992 447.404L306.869 447.478C305.163 448.487 304.105 450.344 304.105 452.326V455.601C304.105 456.392 304.538 457.114 305.236 457.488C305.552 457.657 305.898 457.741 306.245 457.741C306.661 457.741 307.075 457.619 307.435 457.38C307.572 457.289 307.656 457.153 307.699 457.006L306.525 456.324Z" fill="white"/>
<path d="M300.07 452.599C299.861 452.681 299.629 452.672 299.422 452.562C299.164 452.424 299.009 452.167 299.009 451.874V448.599C299.009 447.095 299.813 445.685 301.107 444.919L301.23 444.846C301.405 444.743 301.561 444.81 301.618 444.843C301.678 444.876 301.813 444.976 301.813 445.179C301.813 445.555 302.117 445.858 302.492 445.858C302.867 445.858 303.171 445.555 303.171 445.179C303.171 444.544 302.841 443.978 302.29 443.665C301.738 443.351 301.083 443.355 300.537 443.679L300.414 443.753C298.709 444.762 297.65 446.62 297.65 448.6V451.875C297.65 452.666 298.083 453.39 298.781 453.762C299.097 453.931 299.444 454.015 299.79 454.015C300.206 454.015 300.621 453.894 300.98 453.654C301.117 453.563 301.201 453.426 301.244 453.28L300.07 452.599Z" fill="white"/>
<path d="M293.616 448.873C293.406 448.955 293.174 448.947 292.967 448.836C292.709 448.697 292.554 448.44 292.554 448.145V444.87C292.554 443.367 293.359 441.956 294.653 441.191L294.775 441.119C294.95 441.016 295.106 441.081 295.164 441.116C295.223 441.149 295.359 441.249 295.359 441.452C295.359 441.826 295.663 442.131 296.037 442.131C296.411 442.131 296.716 441.826 296.716 441.452C296.716 440.817 296.387 440.251 295.835 439.936C295.284 439.621 294.628 439.627 294.082 439.951L293.958 440.024C292.253 441.034 291.194 442.892 291.194 444.872V448.147C291.194 448.938 291.627 449.661 292.325 450.034C292.641 450.203 292.988 450.287 293.334 450.287C293.75 450.287 294.165 450.165 294.524 449.926C294.661 449.833 294.745 449.698 294.788 449.552L293.616 448.873Z" fill="white"/>
<path d="M287.161 445.147C286.952 445.23 286.719 445.221 286.513 445.11C286.254 444.971 286.1 444.714 286.1 444.421V441.146C286.1 439.643 286.904 438.232 288.196 437.467L288.319 437.393C288.494 437.291 288.65 437.356 288.708 437.39C288.767 437.424 288.903 437.523 288.903 437.727C288.903 438.101 289.207 438.405 289.581 438.405C289.957 438.405 290.26 438.101 290.26 437.727C290.26 437.091 289.931 436.525 289.379 436.211C288.827 435.896 288.172 435.902 287.626 436.225L287.503 436.297C285.798 437.307 284.74 439.164 284.74 441.145V444.42C284.74 445.211 285.173 445.934 285.87 446.307C286.186 446.476 286.533 446.56 286.88 446.56C287.295 446.56 287.71 446.438 288.069 446.199C288.207 446.106 288.29 445.971 288.334 445.825L287.161 445.147Z" fill="white"/>
<path d="M362.942 431.684L325.595 453.247L276.992 425.187L314.34 403.624L362.942 431.684Z" fill="#E6E6E6"/>
<path d="M365.088 430.979L326.065 449.338L279.983 417.306L319.006 398.947L365.088 430.979Z" fill="#FAFAFA"/>
<path d="M277.971 373.635H262.186H246.279L249.122 407.183H249.133C249.301 408.97 250.551 410.73 252.915 412.095C258.002 415.032 266.251 415.032 271.338 412.095C273.702 410.73 274.952 408.971 275.12 407.183H275.128L277.971 373.635Z" fill="#6D8B89"/>
<path d="M279.999 371.803V369.144H279.374C278.588 367.453 277.063 365.853 274.766 364.526C267.786 360.496 256.469 360.496 249.489 364.526C247.191 365.853 245.665 367.453 244.881 369.144H244.254V371.823C244.254 374.464 245.998 377.105 249.489 379.119C256.469 383.15 267.786 383.15 274.766 379.119C278.265 377.101 280.008 374.451 279.999 371.803Z" fill="#E0E0E0"/>
<path d="M274.766 376.598C267.786 380.628 256.469 380.628 249.489 376.598C242.508 372.568 242.508 366.035 249.489 362.005C256.469 357.975 267.786 357.975 274.766 362.005C281.745 366.034 281.746 372.568 274.766 376.598Z" fill="#EBEBEB"/>
<path d="M276.447 368.195V366.066H275.946C275.316 364.711 274.094 363.429 272.253 362.366C266.661 359.137 257.592 359.137 252 362.366C250.159 363.429 248.937 364.711 248.307 366.066H247.805V368.213C247.805 370.328 249.203 372.445 252 374.06C257.592 377.288 266.659 377.288 272.252 374.06C275.057 372.439 276.454 370.317 276.447 368.195Z" fill="#E0E0E0"/>
<path d="M272.253 372.036C266.661 375.265 257.594 375.265 252.001 372.036C246.409 368.808 246.409 363.572 252.001 360.343C257.594 357.114 266.661 357.114 272.255 360.343C277.846 363.573 277.846 368.808 272.253 372.036Z" fill="#F5F5F5"/>
<path d="M269.917 370.333C265.622 372.816 258.636 372.816 254.326 370.333C250.16 367.93 250.016 364.083 253.893 361.599C254.037 361.502 254.182 361.407 254.326 361.326C255.223 360.814 256.249 360.396 257.338 360.093C261.441 358.955 266.519 359.357 269.917 361.326C274.227 363.811 274.227 367.849 269.917 370.333Z" fill="#F0F0F0"/>
<path d="M254.33 362.611C258.636 360.125 265.617 360.125 269.923 362.611C271.794 363.692 272.85 365.063 273.095 366.473C273.414 364.637 272.359 362.739 269.923 361.332C265.617 358.846 258.635 358.846 254.33 361.332C251.896 362.737 250.84 364.637 251.158 366.473C251.403 365.063 252.46 363.692 254.33 362.611Z" fill="#E0E0E0"/>
<path d="M260.223 363.042L257.019 365.076L253.894 362.834V361.601C254.039 361.504 254.183 361.409 254.327 361.328C255.224 360.815 256.251 360.398 257.34 360.095V361.023L260.223 363.042Z" fill="#E0E0E0"/>
<path d="M636.609 165.985L456.859 62.2061C454.796 61.0162 452.941 61.1043 451.627 62.196L445.405 66.4991L449.649 71.7452V216.701C449.649 222.011 452.877 228.179 456.859 230.478L634.821 333.225L635.152 338.878L641.708 334.384C643.013 333.398 643.819 331.46 643.819 328.806V179.764C643.819 174.453 640.592 168.285 636.609 165.985Z" fill="#6D8B89"/>
<path opacity="0.3" d="M636.609 165.985L456.859 62.2061C454.796 61.0162 452.941 61.1043 451.627 62.196L445.405 66.4991L449.649 71.7452V216.701C449.649 222.011 452.877 228.179 456.859 230.478L634.821 333.225L635.152 338.878L641.708 334.384C643.013 333.398 643.819 331.46 643.819 328.806V179.764C643.819 174.453 640.592 168.285 636.609 165.985Z" fill="black"/>
<path d="M630.487 338.472L450.736 234.693C446.753 232.395 443.525 226.226 443.525 220.916V71.8723C443.525 66.5627 446.753 64.1223 450.736 66.4212L630.487 170.2C634.469 172.499 637.698 178.668 637.698 183.977V333.021C637.696 338.331 634.469 340.771 630.487 338.472Z" fill="#6D8B89"/>
<path d="M630.487 338.472L450.736 234.693C446.753 232.395 443.525 226.226 443.525 220.916V71.8723C443.525 66.5627 446.753 64.1223 450.736 66.4212L630.487 170.2C634.469 172.499 637.698 178.668 637.698 183.977V333.021C637.696 338.331 634.469 340.771 630.487 338.472Z" fill="#6D8B89"/>
<path d="M630.487 170.2L450.736 66.4212C446.753 64.1223 443.525 66.5627 443.525 71.8723V79.1587L637.696 191.264V183.977C637.696 178.668 634.469 172.499 630.487 170.2Z" fill="#455A64"/>
<path d="M447.874 66.9987C448.514 66.9987 449.253 67.2312 450.014 67.6702L629.765 171.449C633.282 173.479 636.252 179.216 636.252 183.976V333.02C636.252 335.98 635.113 337.892 633.349 337.892C632.7 337.892 631.98 337.665 631.209 337.22L451.458 233.441C447.94 231.411 444.969 225.674 444.969 220.915V71.8722C444.969 68.912 446.109 66.9987 447.874 66.9987ZM447.874 65.5547C445.315 65.5547 443.526 67.9171 443.526 71.8708V220.915C443.526 226.224 446.755 232.393 450.737 234.692L630.488 338.471C631.505 339.058 632.473 339.336 633.35 339.336C635.909 339.336 637.698 336.973 637.698 333.02V183.977C637.698 178.668 634.469 172.499 630.488 170.2L450.736 66.4212C449.719 65.8334 448.75 65.5547 447.874 65.5547Z" fill="#6D8B89"/>
<path d="M526.852 144.462C526.592 144.462 526.329 144.397 526.088 144.257L457.666 104.754C456.935 104.332 456.684 103.396 457.107 102.664C457.528 101.935 458.463 101.682 459.196 102.104L527.619 141.607C528.349 142.03 528.601 142.965 528.179 143.697C527.896 144.188 527.382 144.462 526.852 144.462Z" fill="white"/>
<path d="M623.125 200.045C622.865 200.045 622.602 199.978 622.361 199.84L571.677 170.577C570.946 170.155 570.695 169.219 571.118 168.487C571.538 167.757 572.475 167.504 573.207 167.929L623.892 197.191C624.622 197.613 624.874 198.549 624.451 199.281C624.168 199.77 623.655 200.045 623.125 200.045Z" fill="white"/>
<path d="M561.453 164.438C561.193 164.438 560.93 164.372 560.689 164.233L540.102 152.348C539.372 151.925 539.12 150.99 539.542 150.258C539.965 149.528 540.901 149.275 541.631 149.698L562.218 161.584C562.949 162.007 563.2 162.941 562.779 163.673C562.496 164.164 561.982 164.438 561.453 164.438Z" fill="white"/>
<path d="M526.852 240.296C526.592 240.296 526.329 240.23 526.088 240.091L457.666 200.588C456.935 200.166 456.684 199.23 457.107 198.498C457.528 197.767 458.463 197.518 459.196 197.938L527.619 237.441C528.349 237.864 528.601 238.799 528.179 239.531C527.896 240.022 527.382 240.296 526.852 240.296Z" fill="white"/>
<path d="M623.125 295.88C622.865 295.88 622.602 295.815 622.361 295.675L571.677 266.411C570.946 265.988 570.695 265.053 571.118 264.321C571.538 263.591 572.475 263.337 573.207 263.763L623.892 293.025C624.622 293.447 624.874 294.383 624.451 295.115C624.168 295.606 623.655 295.88 623.125 295.88Z" fill="white"/>
<path d="M561.453 260.272C561.193 260.272 560.93 260.207 560.689 260.067L540.102 248.182C539.372 247.76 539.12 246.824 539.542 246.092C539.965 245.362 540.901 245.11 541.631 245.532L562.218 257.418C562.949 257.841 563.2 258.775 562.779 259.507C562.496 259.998 561.982 260.272 561.453 260.272Z" fill="white"/>
<path d="M526.852 262.828C526.592 262.828 526.329 262.763 526.088 262.623L457.666 223.12C456.935 222.698 456.684 221.762 457.105 221.03C457.528 220.3 458.461 220.048 459.195 220.47L527.617 259.973C528.348 260.395 528.599 261.331 528.178 262.063C527.896 262.554 527.382 262.828 526.852 262.828Z" fill="white"/>
<path d="M601.553 305.958C601.293 305.958 601.03 305.893 600.789 305.753L571.677 288.946C570.946 288.524 570.695 287.589 571.116 286.856C571.54 286.126 572.475 285.873 573.206 286.298L602.318 303.104C603.049 303.526 603.3 304.462 602.879 305.194C602.596 305.683 602.083 305.958 601.553 305.958Z" fill="white"/>
<path d="M561.453 282.806C561.193 282.806 560.93 282.741 560.689 282.601L540.102 270.715C539.372 270.292 539.12 269.357 539.542 268.626C539.965 267.895 540.901 267.644 541.631 268.066L562.218 279.951C562.949 280.373 563.2 281.309 562.779 282.041C562.496 282.532 561.982 282.806 561.453 282.806Z" fill="white"/>
<path d="M492.73 136.669C492.47 136.669 492.208 136.604 491.966 136.464L457.666 116.661C456.935 116.239 456.684 115.303 457.107 114.571C457.528 113.842 458.463 113.588 459.196 114.013L493.496 133.816C494.226 134.237 494.478 135.173 494.056 135.905C493.773 136.395 493.259 136.669 492.73 136.669Z" fill="white"/>
<path d="M591.55 193.723C591.291 193.723 591.028 193.658 590.787 193.518L540.102 164.255C539.372 163.833 539.12 162.898 539.542 162.166C539.965 161.435 540.901 161.185 541.631 161.605L592.316 190.868C593.046 191.29 593.298 192.225 592.876 192.957C592.593 193.448 592.079 193.723 591.55 193.723Z" fill="white"/>
<path d="M527.33 156.645C527.07 156.645 526.807 156.58 526.566 156.44L505.98 144.555C505.25 144.133 504.999 143.197 505.42 142.465C505.843 141.734 506.776 141.482 507.51 141.906L528.095 153.792C528.826 154.213 529.077 155.149 528.654 155.881C528.373 156.371 527.859 156.645 527.33 156.645Z" fill="white"/>
<path d="M526.852 168.278C526.592 168.278 526.329 168.213 526.088 168.073L457.666 128.569C456.935 128.146 456.684 127.212 457.105 126.48C457.528 125.749 458.461 125.5 459.195 125.92L527.617 165.423C528.348 165.846 528.599 166.781 528.178 167.513C527.896 168.004 527.382 168.278 526.852 168.278Z" fill="white"/>
<path d="M585.942 202.394C585.682 202.394 585.419 202.329 585.178 202.189L571.677 194.394C570.946 193.973 570.695 193.035 571.118 192.305C571.538 191.576 572.475 191.323 573.207 191.744L586.709 199.539C587.439 199.961 587.691 200.897 587.268 201.629C586.985 202.12 586.472 202.394 585.942 202.394Z" fill="white"/>
<path d="M499.481 164.382C499.221 164.382 498.958 164.317 498.717 164.177L485.216 156.382C484.485 155.961 484.234 155.025 484.655 154.293C485.079 153.561 486.011 153.31 486.745 153.733L500.246 161.527C500.977 161.949 501.228 162.885 500.807 163.617C500.524 164.108 500.01 164.382 499.481 164.382Z" fill="white"/>
<path d="M561.453 188.254C561.193 188.254 560.93 188.189 560.689 188.049L540.102 176.164C539.372 175.742 539.12 174.806 539.542 174.074C539.965 173.344 540.901 173.092 541.631 173.514L562.218 185.4C562.949 185.821 563.2 186.757 562.779 187.489C562.496 187.98 561.982 188.254 561.453 188.254Z" fill="white"/>
<path d="M480.361 153.343C480.101 153.343 479.838 153.278 479.597 153.138L457.666 140.477C456.935 140.055 456.684 139.119 457.105 138.387C457.528 137.657 458.461 137.405 459.195 137.827L481.126 150.488C481.857 150.911 482.108 151.845 481.687 152.577C481.404 153.068 480.89 153.343 480.361 153.343Z" fill="white"/>
<path d="M527.33 180.463C527.07 180.463 526.807 180.398 526.566 180.257L505.98 168.372C505.25 167.95 504.999 167.015 505.42 166.282C505.843 165.552 506.776 165.299 507.51 165.724L528.095 177.609C528.826 178.031 529.077 178.967 528.654 179.699C528.373 180.188 527.859 180.463 527.33 180.463Z" fill="white"/>
<path d="M526.852 192.962C526.592 192.962 526.329 192.897 526.088 192.757L457.666 153.253C456.935 152.832 456.684 151.896 457.105 151.164C457.528 150.434 458.461 150.18 459.195 150.603L527.617 190.107C528.348 190.53 528.599 191.464 528.178 192.196C527.896 192.687 527.382 192.962 526.852 192.962Z" fill="white"/>
<path d="M623.125 248.546C622.865 248.546 622.602 248.481 622.361 248.341L571.677 219.078C570.946 218.656 570.695 217.721 571.118 216.988C571.538 216.259 572.475 216.004 573.207 216.43L623.892 245.692C624.622 246.114 624.874 247.05 624.451 247.782C624.168 248.271 623.655 248.546 623.125 248.546Z" fill="white"/>
<path d="M561.453 212.939C561.193 212.939 560.93 212.875 560.689 212.734L540.102 200.849C539.372 200.427 539.12 199.492 539.542 198.759C539.965 198.029 540.901 197.779 541.631 198.199L562.218 210.085C562.949 210.508 563.2 211.442 562.779 212.174C562.496 212.665 561.982 212.939 561.453 212.939Z" fill="white"/>
<path d="M492.73 185.17C492.47 185.17 492.208 185.105 491.966 184.965L457.667 165.162C456.936 164.739 456.685 163.805 457.107 163.072C457.53 162.342 458.463 162.092 459.196 162.512L493.496 182.315C494.226 182.737 494.478 183.673 494.056 184.405C493.773 184.896 493.259 185.17 492.73 185.17Z" fill="white"/>
<path d="M591.55 242.224C591.291 242.224 591.028 242.159 590.787 242.019L540.102 212.756C539.372 212.334 539.12 211.399 539.542 210.667C539.965 209.936 540.901 209.685 541.631 210.106L592.316 239.369C593.046 239.791 593.298 240.726 592.876 241.459C592.593 241.949 592.079 242.224 591.55 242.224Z" fill="white"/>
<path d="M527.33 205.146C527.07 205.146 526.807 205.081 526.566 204.941L505.98 193.056C505.25 192.634 504.999 191.698 505.42 190.966C505.843 190.235 506.776 189.983 507.51 190.406L528.095 202.291C528.826 202.713 529.077 203.649 528.654 204.381C528.373 204.872 527.859 205.146 527.33 205.146Z" fill="white"/>
<path d="M526.852 216.779C526.592 216.779 526.329 216.714 526.088 216.574L457.666 177.071C456.935 176.647 456.684 175.713 457.105 174.981C457.528 174.25 458.461 173.999 459.195 174.421L527.617 213.924C528.348 214.346 528.599 215.282 528.178 216.014C527.896 216.505 527.382 216.779 526.852 216.779Z" fill="white"/>
<path d="M585.942 250.894C585.682 250.894 585.419 250.829 585.178 250.689L571.677 242.894C570.946 242.471 570.695 241.535 571.118 240.804C571.538 240.075 572.475 239.821 573.207 240.244L586.709 248.039C587.439 248.46 587.691 249.396 587.268 250.128C586.985 250.621 586.472 250.894 585.942 250.894Z" fill="white"/>
<path d="M499.481 212.883C499.221 212.883 498.958 212.818 498.717 212.678L485.216 204.883C484.485 204.462 484.234 203.526 484.657 202.794C485.079 202.065 486.013 201.809 486.746 202.235L500.248 210.03C500.978 210.453 501.23 211.387 500.807 212.119C500.524 212.609 500.01 212.883 499.481 212.883Z" fill="white"/>
<path d="M561.453 236.755C561.193 236.755 560.93 236.69 560.689 236.55L540.102 224.665C539.372 224.242 539.12 223.306 539.542 222.575C539.965 221.845 540.901 221.595 541.631 222.015L562.218 233.901C562.949 234.322 563.2 235.258 562.779 235.99C562.496 236.481 561.982 236.755 561.453 236.755Z" fill="white"/>
<path d="M480.361 201.844C480.101 201.844 479.838 201.777 479.597 201.639L457.666 188.978C456.935 188.556 456.684 187.62 457.105 186.888C457.528 186.158 458.461 185.906 459.195 186.328L481.126 198.989C481.857 199.411 482.108 200.346 481.687 201.079C481.404 201.569 480.89 201.844 480.361 201.844Z" fill="white"/>
<path d="M527.33 228.962C527.07 228.962 526.807 228.897 526.566 228.757L505.98 216.872C505.25 216.45 504.999 215.514 505.42 214.782C505.843 214.051 506.776 213.8 507.51 214.222L528.095 226.109C528.826 226.53 529.077 227.466 528.654 228.198C528.373 228.688 527.859 228.962 527.33 228.962Z" fill="white"/>
<path d="M499.481 235.708C499.221 235.708 498.958 235.643 498.717 235.503L485.216 227.709C484.485 227.287 484.234 226.351 484.655 225.619C485.079 224.89 486.011 224.637 486.745 225.059L500.246 232.854C500.977 233.275 501.228 234.211 500.807 234.943C500.524 235.436 500.01 235.708 499.481 235.708Z" fill="white"/>
<path d="M480.361 224.671C480.101 224.671 479.838 224.606 479.597 224.466L457.666 211.805C456.935 211.383 456.684 210.447 457.105 209.715C457.528 208.984 458.461 208.732 459.195 209.156L481.126 221.817C481.857 222.239 482.108 223.175 481.687 223.907C481.404 224.396 480.89 224.671 480.361 224.671Z" fill="white"/>
<path d="M527.33 251.789C527.07 251.789 526.807 251.722 526.566 251.584L505.98 239.698C505.25 239.277 504.999 238.341 505.42 237.609C505.843 236.878 506.776 236.627 507.51 237.049L528.095 248.934C528.826 249.356 529.077 250.291 528.654 251.024C528.373 251.515 527.859 251.789 527.33 251.789Z" fill="white"/>
<path d="M471.976 119.604V174.972C471.976 175.86 471.649 176.458 471.15 176.653L471.135 176.658L471.132 176.66L469.013 177.821L469.024 175.934L468.724 119.009L471.499 117.607C471.797 118.243 471.976 118.948 471.976 119.604Z" fill="#263238"/>
<path d="M471.501 117.609L468.725 119.012L401.591 79.6568L399.991 78.7254L402.202 77.4807L402.265 77.4432C402.618 77.2309 403.08 77.2439 403.588 77.537L469.979 115.79C470.588 116.142 471.134 116.821 471.501 117.609Z" fill="#37474F"/>
<path d="M469.569 120.811V175.813C469.569 176.578 469.325 177.127 468.936 177.384L468.809 177.453C468.471 177.613 468.047 177.579 467.585 177.312L401.592 139.288C400.496 138.656 399.605 136.956 399.605 135.496V80.4958C399.605 79.7565 399.832 79.2208 400.199 78.9522C400.261 78.906 400.329 78.867 400.401 78.8381C400.733 78.6966 401.145 78.7385 401.592 78.9955L467.585 117.02C468.168 117.357 468.692 117.996 469.054 118.74C469.374 119.391 469.569 120.126 469.569 120.811Z" fill="#455A64"/>
<path d="M445.656 134.576L456.291 136.047V132.693L445.656 121.882V125.107L455.241 134.666V132.86L445.656 131.351V134.576ZM445.038 139.483L437.665 110.922L434.559 109.129L441.933 137.69L445.038 139.483ZM434.166 127.942V124.717L424.581 115.159V116.965L434.166 118.474V115.249L423.531 113.778V117.132L434.166 127.942Z" fill="#FAFAFA"/>
<path d="M400.54 78.9001C400.724 78.9001 400.929 78.9637 401.149 79.0908L467.54 117.344C468.039 117.631 468.525 118.204 468.871 118.918C469.18 119.547 469.352 120.23 469.352 120.838V176.172C469.352 176.785 469.18 177.248 468.907 177.43L468.798 177.491C468.711 177.531 468.616 177.551 468.513 177.551C468.33 177.551 468.126 177.488 467.908 177.362L401.517 139.109C400.534 138.542 399.702 136.94 399.702 135.613V80.2792C399.702 79.6886 399.865 79.2308 400.15 79.0214C400.19 78.9911 400.229 78.9695 400.278 78.9507C400.358 78.9175 400.446 78.9001 400.54 78.9001ZM400.54 78.5319C400.395 78.5319 400.258 78.5594 400.134 78.6128C400.062 78.6402 399.994 78.6807 399.93 78.7269C399.562 78.9969 399.334 79.5355 399.334 80.2806V135.612C399.334 137.082 400.229 138.79 401.332 139.427L467.723 177.68C468.003 177.842 468.27 177.92 468.513 177.92C468.672 177.92 468.821 177.886 468.955 177.823L469.083 177.752C469.475 177.494 469.72 176.941 469.72 176.171V120.837C469.72 120.148 469.524 119.41 469.202 118.755C468.838 118.007 468.311 117.363 467.723 117.025L401.332 78.7702C401.049 78.6085 400.782 78.5319 400.54 78.5319Z" fill="#37474F"/>
<path d="M461.296 80.3254C461.296 81.9008 460.19 82.5391 458.825 81.7521C457.461 80.9637 456.355 79.0489 456.355 77.4735C456.355 75.8981 457.461 75.2599 458.825 76.0468C460.19 76.8353 461.296 78.75 461.296 80.3254Z" fill="white"/>
<path d="M470.477 85.9945C470.477 87.5699 469.371 88.2082 468.006 87.4212C466.642 86.6342 465.536 84.718 465.536 83.1426C465.536 81.5672 466.642 80.929 468.006 81.716C469.372 82.5044 470.477 84.4191 470.477 85.9945Z" fill="white"/>
<path d="M479.659 91.6637C479.659 93.2391 478.553 93.8774 477.189 93.0904C475.824 92.3034 474.718 90.3872 474.718 88.8118C474.718 87.2364 475.824 86.5982 477.189 87.3851C478.553 88.1721 479.659 90.0883 479.659 91.6637Z" fill="white"/>
</svg>
