<svg width="283" height="62" viewBox="0 0 283 62" fill="none" xmlns="http://www.w3.org/2000/svg">
<path d="M12.4 41.3L0.9 29.95L12.4 18.6H19.6L8.05 29.95L19.6 41.3H12.4ZM48.8652 0.799997L35.2652 56.75H29.6652L43.2152 0.799997H48.8652ZM67.1488 20C69.2822 20 71.1655 20.4333 72.7988 21.3C74.4655 22.1333 75.7655 23.1833 76.6988 24.45V20.45H82.4488V48.45C82.4488 50.9833 81.9155 53.2333 80.8488 55.2C79.7822 57.2 78.2322 58.7667 76.1988 59.9C74.1988 61.0333 71.7988 61.6 68.9988 61.6C65.2655 61.6 62.1655 60.7167 59.6988 58.95C57.2322 57.2167 55.8322 54.85 55.4988 51.85H61.1488C61.5822 53.2833 62.4988 54.4333 63.8988 55.3C65.3322 56.2 67.0322 56.65 68.9988 56.65C71.2988 56.65 73.1488 55.95 74.5488 54.55C75.9822 53.15 76.6988 51.1167 76.6988 48.45V43.85C75.7322 45.15 74.4155 46.25 72.7488 47.15C71.1155 48.0167 69.2488 48.45 67.1488 48.45C64.7488 48.45 62.5488 47.85 60.5488 46.65C58.5822 45.4167 57.0155 43.7167 55.8488 41.55C54.7155 39.35 54.1488 36.8667 54.1488 34.1C54.1488 31.3333 54.7155 28.8833 55.8488 26.75C57.0155 24.6167 58.5822 22.9667 60.5488 21.8C62.5488 20.6 64.7488 20 67.1488 20ZM76.6988 34.2C76.6988 32.3 76.2988 30.65 75.4988 29.25C74.7322 27.85 73.7155 26.7833 72.4488 26.05C71.1822 25.3167 69.8155 24.95 68.3488 24.95C66.8822 24.95 65.5155 25.3167 64.2488 26.05C62.9822 26.75 61.9488 27.8 61.1488 29.2C60.3822 30.5667 59.9988 32.2 59.9988 34.1C59.9988 36 60.3822 37.6667 61.1488 39.1C61.9488 40.5333 62.9822 41.6333 64.2488 42.4C65.5488 43.1333 66.9155 43.5 68.3488 43.5C69.8155 43.5 71.1822 43.1333 72.4488 42.4C73.7155 41.6667 74.7322 40.6 75.4988 39.2C76.2988 37.7667 76.6988 36.1 76.6988 34.2ZM114.886 20.45V48H109.186V44.75C108.286 45.8833 107.102 46.7833 105.636 47.45C104.202 48.0833 102.669 48.4 101.036 48.4C98.8689 48.4 96.9189 47.95 95.1855 47.05C93.4855 46.15 92.1355 44.8167 91.1355 43.05C90.1689 41.2833 89.6855 39.15 89.6855 36.65V20.45H95.3355V35.8C95.3355 38.2667 95.9522 40.1667 97.1855 41.5C98.4189 42.8 100.102 43.45 102.236 43.45C104.369 43.45 106.052 42.8 107.286 41.5C108.552 40.1667 109.186 38.2667 109.186 35.8V20.45H114.886ZM132.406 48.45C130.24 48.45 128.29 48.0667 126.556 47.3C124.856 46.5 123.506 45.4333 122.506 44.1C121.506 42.7333 120.973 41.2167 120.906 39.55H126.806C126.906 40.7167 127.456 41.7 128.456 42.5C129.49 43.2667 130.773 43.65 132.306 43.65C133.906 43.65 135.14 43.35 136.006 42.75C136.906 42.1167 137.356 41.3167 137.356 40.35C137.356 39.3167 136.856 38.55 135.856 38.05C134.89 37.55 133.34 37 131.206 36.4C129.14 35.8333 127.456 35.2833 126.156 34.75C124.856 34.2167 123.723 33.4 122.756 32.3C121.823 31.2 121.356 29.75 121.356 27.95C121.356 26.4833 121.79 25.15 122.656 23.95C123.523 22.7167 124.756 21.75 126.356 21.05C127.99 20.35 129.856 20 131.956 20C135.09 20 137.606 20.8 139.506 22.4C141.44 23.9667 142.473 26.1167 142.606 28.85H136.906C136.806 27.6167 136.306 26.6333 135.406 25.9C134.506 25.1667 133.29 24.8 131.756 24.8C130.256 24.8 129.106 25.0833 128.306 25.65C127.506 26.2167 127.106 26.9667 127.106 27.9C127.106 28.6333 127.373 29.25 127.906 29.75C128.44 30.25 129.09 30.65 129.856 30.95C130.623 31.2167 131.756 31.5667 133.256 32C135.256 32.5333 136.89 33.0833 138.156 33.65C139.456 34.1833 140.573 34.9833 141.506 36.05C142.44 37.1167 142.923 38.5333 142.956 40.3C142.956 41.8667 142.523 43.2667 141.656 44.5C140.79 45.7333 139.556 46.7 137.956 47.4C136.39 48.1 134.54 48.45 132.406 48.45ZM155.765 25.1V40.35C155.765 41.3833 155.999 42.1333 156.465 42.6C156.965 43.0333 157.799 43.25 158.965 43.25H162.465V48H157.965C155.399 48 153.432 47.4 152.065 46.2C150.699 45 150.015 43.05 150.015 40.35V25.1H146.765V20.45H150.015V13.6H155.765V20.45H162.465V25.1H155.765ZM165.819 34.1C165.819 31.3333 166.385 28.8833 167.519 26.75C168.685 24.6167 170.252 22.9667 172.219 21.8C174.219 20.6 176.419 20 178.819 20C180.985 20 182.869 20.4333 184.469 21.3C186.102 22.1333 187.402 23.1833 188.369 24.45V20.45H194.119V48H188.369V43.9C187.402 45.2 186.085 46.2833 184.419 47.15C182.752 48.0167 180.852 48.45 178.719 48.45C176.352 48.45 174.185 47.85 172.219 46.65C170.252 45.4167 168.685 43.7167 167.519 41.55C166.385 39.35 165.819 36.8667 165.819 34.1ZM188.369 34.2C188.369 32.3 187.969 30.65 187.169 29.25C186.402 27.85 185.385 26.7833 184.119 26.05C182.852 25.3167 181.485 24.95 180.019 24.95C178.552 24.95 177.185 25.3167 175.919 26.05C174.652 26.75 173.619 27.8 172.819 29.2C172.052 30.5667 171.669 32.2 171.669 34.1C171.669 36 172.052 37.6667 172.819 39.1C173.619 40.5333 174.652 41.6333 175.919 42.4C177.219 43.1333 178.585 43.5 180.019 43.5C181.485 43.5 182.852 43.1333 184.119 42.4C185.385 41.6667 186.402 40.6 187.169 39.2C187.969 37.7667 188.369 36.1 188.369 34.2ZM212.255 42.9L220.055 20.45H226.105L215.605 48H208.805L198.355 20.45H204.455L212.255 42.9ZM242.364 48.45C239.764 48.45 237.414 47.8667 235.314 46.7C233.214 45.5 231.564 43.8333 230.364 41.7C229.164 39.5333 228.564 37.0333 228.564 34.2C228.564 31.4 229.181 28.9167 230.414 26.75C231.647 24.5833 233.331 22.9167 235.464 21.75C237.597 20.5833 239.981 20 242.614 20C245.247 20 247.631 20.5833 249.764 21.75C251.897 22.9167 253.581 24.5833 254.814 26.75C256.047 28.9167 256.664 31.4 256.664 34.2C256.664 37 256.031 39.4833 254.764 41.65C253.497 43.8167 251.764 45.5 249.564 46.7C247.397 47.8667 244.997 48.45 242.364 48.45ZM242.364 43.5C243.831 43.5 245.197 43.15 246.464 42.45C247.764 41.75 248.814 40.7 249.614 39.3C250.414 37.9 250.814 36.2 250.814 34.2C250.814 32.2 250.431 30.5167 249.664 29.15C248.897 27.75 247.881 26.7 246.614 26C245.347 25.3 243.981 24.95 242.514 24.95C241.047 24.95 239.681 25.3 238.414 26C237.181 26.7 236.197 27.75 235.464 29.15C234.731 30.5167 234.364 32.2 234.364 34.2C234.364 37.1667 235.114 39.4667 236.614 41.1C238.147 42.7 240.064 43.5 242.364 43.5ZM264.149 18.6H271.349L282.849 29.95L271.349 41.3H264.149L275.699 29.95L264.149 18.6Z" fill="#F8F4C4"/>
</svg>
