<svg width="157" height="157" viewBox="0 0 157 157" fill="none" xmlns="http://www.w3.org/2000/svg">
<g clip-path="url(#clip0_6_271)">
<path d="M135.74 21.2605H21.2604V135.74H135.74V21.2605Z" fill="#F5DE19" stroke="#F5DE19" stroke-width="133.333" stroke-linecap="round" stroke-linejoin="round"/>
<path d="M98.1618 110.697C99.1372 112.679 100.653 114.344 102.533 115.501C104.414 116.659 106.584 117.261 108.792 117.239C113.249 117.239 116.098 115.011 116.098 111.924C116.098 108.244 113.171 106.928 108.265 104.781L105.574 103.628C97.8061 100.321 92.6545 96.1789 92.6545 87.4213C92.6545 79.3546 98.7874 73.2095 108.408 73.2095C111.522 72.9846 114.634 73.6816 117.354 75.2136C120.075 76.7455 122.284 79.0446 123.707 81.8241L115.297 87.2005C114.749 85.8223 113.795 84.6433 112.562 83.8196C111.329 82.996 109.874 82.5667 108.391 82.5886C107.744 82.5239 107.091 82.5946 106.473 82.7963C105.855 82.998 105.285 83.3262 104.801 83.7601C104.317 84.1939 103.928 84.7239 103.66 85.3163C103.392 85.9086 103.25 86.5503 103.244 87.2005C103.244 90.4264 105.243 91.7347 109.859 93.7422L112.549 94.8951C121.691 98.8161 126.859 102.811 126.859 111.793C126.859 121.479 119.251 126.786 109.033 126.786C105.052 127.039 101.083 126.136 97.6042 124.183C94.1255 122.231 91.2861 119.314 89.4287 115.783L98.1618 110.697ZM60.1588 111.63C61.8474 114.626 63.3847 117.161 67.0807 117.161C70.6132 117.161 72.8456 115.779 72.8456 110.403V73.8228H83.6025V110.546C83.6025 121.683 77.0608 126.753 67.5386 126.753C64.1727 126.937 60.83 126.098 57.9497 124.347C55.0695 122.596 52.7866 120.014 51.4012 116.941L60.1588 111.63Z" fill="black" stroke="#F5DE19" stroke-width="133.333" stroke-linecap="round" stroke-linejoin="round"/>
<path d="M135.74 21.2605H21.2604V135.74H135.74V21.2605Z" fill="#F5DE19"/>
<path d="M98.1618 110.697C99.1372 112.679 100.653 114.344 102.533 115.501C104.414 116.659 106.584 117.261 108.792 117.239C113.249 117.239 116.098 115.011 116.098 111.924C116.098 108.244 113.171 106.928 108.265 104.781L105.574 103.628C97.8061 100.321 92.6545 96.1789 92.6545 87.4213C92.6545 79.3546 98.7874 73.2095 108.408 73.2095C111.522 72.9846 114.634 73.6816 117.354 75.2136C120.075 76.7455 122.284 79.0446 123.707 81.8241L115.297 87.2005C114.749 85.8223 113.795 84.6433 112.562 83.8196C111.329 82.996 109.874 82.5667 108.391 82.5886C107.744 82.5239 107.091 82.5946 106.473 82.7963C105.855 82.998 105.285 83.3262 104.801 83.7601C104.317 84.1939 103.928 84.7239 103.66 85.3163C103.392 85.9086 103.25 86.5503 103.244 87.2005C103.244 90.4264 105.243 91.7347 109.859 93.7422L112.549 94.8951C121.691 98.8161 126.859 102.811 126.859 111.793C126.859 121.479 119.251 126.786 109.033 126.786C105.052 127.039 101.083 126.136 97.6042 124.183C94.1255 122.231 91.2861 119.314 89.4287 115.783L98.1618 110.697ZM60.1588 111.63C61.8474 114.626 63.3847 117.161 67.0807 117.161C70.6132 117.161 72.8456 115.779 72.8456 110.403V73.8228H83.6025V110.546C83.6025 121.683 77.0608 126.753 67.5386 126.753C64.1727 126.937 60.83 126.098 57.9497 124.347C55.0695 122.596 52.7866 120.014 51.4012 116.941L60.1588 111.63Z" fill="black"/>
</g>
<defs>
<clipPath id="clip0_6_271">
<rect width="157" height="157" rx="38" fill="white"/>
</clipPath>
</defs>
</svg>
