<svg width="170" height="170" viewBox="0 0 170 170" fill="none" xmlns="http://www.w3.org/2000/svg">
<path d="M99.2316 84.8719C99.2316 77.2517 92.8603 71.0732 85 71.0732C77.1407 71.0732 70.7683 77.2517 70.7683 84.8719C70.7683 92.4932 77.1407 98.6712 85 98.6712C92.8603 98.6712 99.2316 92.4932 99.2316 84.8719Z" fill="#2ED2FF"/>
<path fill-rule="evenodd" clip-rule="evenodd" d="M131.221 59.254C134.226 47.4129 138.004 25.4547 124.687 18.0102C111.431 10.5982 94.1821 24.801 85.0738 33.3263C75.9921 24.886 58.2585 10.7438 44.9524 18.212C31.7024 25.6489 35.7884 47.243 38.8604 59.1584C26.5004 62.5621 5.3125 69.8934 5.3125 84.872C5.3125 99.8081 26.4783 107.784 38.7652 111.185C35.6818 123.166 31.8004 144.452 45.0674 151.872C58.4232 159.339 76.1016 145.533 85.2943 136.915C94.461 145.49 111.544 159.386 124.802 151.945C138.102 144.48 134.638 122.816 131.566 110.832C143.476 107.424 164.688 99.6216 164.688 84.872C164.688 70.0373 143.386 62.6466 131.221 59.254ZM129.711 104.481C127.694 98.2897 124.971 91.706 121.641 84.9049C124.82 78.2643 127.437 71.7655 129.398 65.6142C138.316 68.1211 157.88 73.8507 157.88 84.872C157.88 95.9969 139.106 101.781 129.711 104.481ZM121.391 146.232C111.499 151.783 96.8049 138.495 90.0352 132.18C94.5264 127.417 99.0144 121.88 103.395 115.732C111.1 115.07 118.378 113.986 124.98 112.507C127.142 120.984 131.326 140.655 121.391 146.232ZM48.4692 146.153C38.5763 140.622 43.0981 121.628 45.3665 112.802C51.8943 114.202 59.1207 115.21 66.844 115.817C71.2528 121.833 75.871 127.362 80.5247 132.205C74.775 137.598 58.4083 151.709 48.4692 146.153ZM12.1204 84.872C12.1204 73.7056 31.5672 68.0175 40.6886 65.5169C42.6833 71.8064 45.2994 78.3827 48.4565 85.0329C45.2585 91.7819 42.605 98.4624 40.592 104.826C31.8946 102.412 12.1204 96.0452 12.1204 84.872ZM48.3634 23.9251C58.2967 18.3502 73.7093 31.9272 80.3032 38.0382C75.6734 42.8588 71.0977 48.3469 66.7266 54.3283C59.2312 55.0019 52.0559 56.0835 45.4595 57.5328C42.9848 47.9225 38.4408 29.4939 48.3634 23.9251ZM108.265 61.5033C113.35 62.1254 118.222 62.9531 122.797 63.9657C121.424 68.2337 119.712 72.6968 117.696 77.2719C114.773 71.8956 111.636 66.6272 108.265 61.5033ZM85.076 42.7555C88.2162 46.0539 91.3612 49.7372 94.4552 53.7333C88.1795 53.4453 81.8938 53.4443 75.6181 53.729C78.7148 49.77 81.8869 46.0922 85.076 42.7555ZM52.3627 77.2671C50.38 72.7079 48.6836 68.2252 47.2984 63.8961C51.8456 62.9096 56.695 62.1031 61.7472 61.4911C58.3663 66.6039 55.2346 71.8702 52.3627 77.2671ZM61.8922 108.724C56.6732 108.159 51.7504 107.394 47.2045 106.434C48.6117 102.029 50.3454 97.4498 52.3704 92.7924C55.2819 98.2457 58.4614 103.563 61.8922 108.724ZM85.2646 127.455C82.0378 124.079 78.8189 120.345 75.6755 116.328C81.9867 116.568 88.3102 116.569 94.6209 116.296C91.5174 120.385 88.3835 124.125 85.2646 127.455ZM117.761 92.5554C119.891 97.2634 121.687 101.818 123.113 106.149C118.492 107.171 113.503 107.995 108.246 108.606C111.642 103.385 114.829 98.0347 117.761 92.5554ZM99.595 109.406C89.9412 110.075 80.2272 110.068 70.5702 109.461C65.0829 101.689 60.1981 93.5159 55.9815 85.0308C60.1779 76.5632 65.0271 68.4059 70.4884 60.6464C80.1523 59.9383 89.8758 59.9362 99.5398 60.6507C104.954 68.4096 109.796 76.5457 114.09 84.9368C109.847 93.4001 104.972 101.574 99.595 109.406ZM121.286 23.7288C131.222 29.2854 126.799 49.0198 124.629 57.6013C118.017 56.1218 110.836 55.021 103.319 54.3368C98.9395 48.2908 94.4021 42.7931 89.8471 38.0348C96.5255 31.7922 111.446 18.2266 121.286 23.7288Z" fill="#2ED2FF"/>
</svg>
